Coordinates
nRows=327
nColumns=2
inDegrees=yes
endheader
time	ankle_angle_r	
4.59073	  9.513024	
4.62399	  9.504897	
4.65726	  9.500745	
4.69052	  9.501263	
4.72379	  9.508478	
4.75706	  9.521214	
4.79032	  9.530386	
4.82359	  9.529226	
4.85685	  9.519487	
4.89012	  9.504336	
4.92339	  9.485315	
4.95665	  9.465914	
4.98992	  9.451775	
5.02319	  9.445897	
5.05645	  9.446131	
5.08972	  9.449955	
5.12298	  9.457237	
5.15625	  9.464225	
5.18952	  9.462761	
5.22278	  9.454033	
5.25605	  9.451228	
5.28931	  9.459734	
5.32258	  9.467282	
5.35585	  9.457143	
5.38911	  9.430390	
5.42238	  9.411851	
5.45565	  9.419322	
5.48891	  9.440101	
5.52218	  9.456810	
5.55544	  9.471335	
5.58871	  9.488991	
5.62198	  9.504923	
5.65524	  9.511697	
5.68851	  9.504960	
5.72177	  9.484273	
5.75504	  9.455954	
5.78831	  9.435236	
5.82157	  9.437400	
5.85484	  9.458680	
5.8881	  9.477613	
5.92137	  9.480765	
5.95464	  9.471045	
5.9879	  9.453776	
6.02117	  9.434672	
6.05444	  9.426460	
6.0877	  9.438391	
6.12097	  9.462035	
6.15423	  9.478293	
6.1875	  9.478768	
6.22077	  9.475469	
6.25403	  9.479553	
6.2873	  9.482505	
6.32056	  9.475746	
6.35383	  9.466921	
6.3871	  9.466161	
6.42036	  9.473845	
6.45363	  9.482290	
6.4869	  9.486541	
6.52016	  9.488713	
6.55343	  9.486208	
6.58669	  9.473884	
6.61996	  9.457545	
6.65323	  9.446732	
6.68649	  9.443814	
6.71976	  9.444817	
6.75302	  9.442870	
6.78629	  9.436679	
6.81956	  9.433755	
6.85282	  9.440129	
6.88609	  9.454759	
6.91935	  9.470828	
6.95262	  9.477327	
6.98589	  9.469372	
7.01915	  9.453783	
7.05242	  9.439610	
7.08569	  9.434658	
7.11895	  9.442031	
7.15222	  9.451437	
7.18548	  9.452077	
7.21875	  9.446375	
7.25202	  9.437362	
7.28528	  9.425840	
7.31855	  9.421436	
7.35181	  9.433157	
7.38508	  9.455511	
7.41835	  9.474111	
7.45161	  9.479108	
7.48488	  9.474361	
7.51815	  9.472698	
7.55141	  9.478519	
7.58468	  9.485184	
7.61794	  9.489675	
7.65121	  9.493882	
7.68448	  9.495573	
7.71774	  9.491130	
7.75101	  9.482303	
7.78427	  9.475674	
7.81754	  9.476212	
7.85081	  9.481099	
7.88407	  9.484717	
7.91734	  9.487149	
7.9506	  9.489789	
7.98387	  9.490431	
8.01714	  9.488834	
8.0504	  9.488090	
8.08367	  9.490263	
8.11694	  9.493867	
8.1502	  9.494247	
8.18347	  9.491781	
8.21673	  9.492776	
8.25	  9.495554	
8.28327	  9.492400	
8.31653	  9.485430	
8.3498	  9.483771	
8.38306	  9.489026	
8.41633	  9.492866	
8.4496	  9.489675	
8.48286	  9.485812	
8.51613	  9.485981	
8.5494	  9.480698	
8.58266	  9.463717	
8.61593	  9.445848	
8.64919	  9.439191	
8.68246	  9.444765	
8.71573	  9.458148	
8.74899	  9.475653	
8.78226	  9.493558	
8.81552	  9.502333	
8.84879	  9.492999	
8.88206	  9.474126	
8.91532	  9.464183	
8.94859	  9.467737	
8.98185	  9.475107	
9.01512	  9.477212	
9.04839	  9.472838	
9.08165	  9.467741	
9.11492	  9.467079	
9.14819	  9.470543	
9.18145	  9.474851	
9.21472	  9.475623	
9.24798	  9.471567	
9.28125	  9.467271	
9.31452	  9.465038	
9.34778	  9.460877	
9.38105	  9.453885	
9.41431	  9.449041	
9.44758	  9.450601	
9.48085	  9.461468	
9.51411	  9.479441	
9.54738	  9.492523	
9.58065	  9.493949	
9.61391	  9.493638	
9.64718	  9.499745	
9.68044	  9.504951	
9.71371	  9.501492	
9.74698	  9.491918	
9.78024	  9.480438	
9.81351	  9.467362	
9.84677	  9.456471	
9.88004	  9.458503	
9.91331	  9.476661	
9.94657	  9.498703	
9.97984	  9.513492	
10.0131	  9.520701	
10.0464	  9.522257	
10.0796	  9.517933	
10.1129	  9.505493	
10.1462	  9.484526	
10.1794	  9.464005	
10.2127	  9.454780	
10.246	  9.458766	
10.2792	  9.472865	
10.3125	  9.490426	
10.3458	  9.501784	
10.379	  9.503136	
10.4123	  9.498501	
10.4456	  9.494137	
10.4788	  9.492404	
10.5121	  9.486540	
10.5454	  9.470260	
10.5786	  9.451192	
10.6119	  9.439886	
10.6452	  9.434910	
10.6784	  9.429801	
10.7117	  9.423644	
10.745	  9.420748	
10.7782	  9.423245	
10.8115	  9.428581	
10.8448	  9.438315	
10.878	  9.455623	
10.9113	  9.471227	
10.9446	  9.471100	
10.9778	  9.454675	
11.0111	  9.433530	
11.0444	  9.418315	
11.0776	  9.411267	
11.1109	  9.412123	
11.1442	  9.423360	
11.1774	  9.440344	
11.2107	  9.450967	
11.244	  9.452100	
11.2772	  9.450852	
11.3105	  9.451909	
11.3437	  9.454631	
11.377	  9.456906	
11.4103	  9.456610	
11.4435	  9.452278	
11.4768	  9.442953	
11.5101	  9.427123	
11.5433	  9.410522	
11.5766	  9.408064	
11.6099	  9.420472	
11.6431	  9.430659	
11.6764	  9.430410	
11.7097	  9.421124	
11.7429	  9.404636	
11.7762	  9.392578	
11.8095	  9.398631	
11.8427	  9.419224	
11.876	  9.437455	
11.9093	  9.440623	
11.9425	  9.433482	
11.9758	  9.432576	
12.0091	  9.441928	
12.0423	  9.448668	
12.0756	  9.444514	
12.1089	  9.435503	
12.1421	  9.431690	
12.1754	  9.434935	
12.2087	  9.438653	
12.2419	  9.440130	
12.2752	  9.444436	
12.3085	  9.450280	
12.3417	  9.450104	
12.375	  9.446373	
12.4083	  9.446352	
12.4415	  9.449738	
12.4748	  9.453815	
12.5081	  9.459915	
12.5413	  9.472217	
12.5746	  9.490699	
12.6079	  9.506449	
12.6411	  9.512602	
12.6744	  9.513570	
12.7077	  9.515782	
12.7409	  9.520597	
12.7742	  9.525969	
12.8075	  9.529196	
12.8407	  9.531678	
12.874	  9.535090	
12.9073	  9.536263	
12.9405	  9.534765	
12.9738	  9.534251	
13.0071	  9.535518	
13.0403	  9.538301	
13.0736	  9.542274	
13.1069	  9.544830	
13.1401	  9.545392	
13.1734	  9.545362	
13.2067	  9.544815	
13.2399	  9.545987	
13.2732	  9.548695	
13.3065	  9.545711	
13.3397	  9.537056	
13.373	  9.533493	
13.4062	  9.539582	
13.4395	  9.548851	
13.4728	  9.552408	
13.506	  9.548354	
13.5393	  9.544085	
13.5726	  9.541761	
13.6058	  9.533055	
13.6391	  9.518175	
13.6724	  9.506245	
13.7056	  9.496012	
13.7389	  9.481746	
13.7722	  9.466398	
13.8054	  9.454922	
13.8387	  9.450259	
13.872	  9.454034	
13.9052	  9.462445	
13.9385	  9.471562	
13.9718	  9.481286	
14.005	  9.485498	
14.0383	  9.476122	
14.0716	  9.459103	
14.1048	  9.449043	
14.1381	  9.450546	
14.1714	  9.454756	
14.2046	  9.454501	
14.2379	  9.453892	
14.2712	  9.456133	
14.3044	  9.457075	
14.3377	  9.458555	
14.371	  9.466514	
14.4042	  9.476484	
14.4375	  9.480338	
14.4708	  9.478220	
14.504	  9.472834	
14.5373	  9.462702	
14.5706	  9.447029	
14.6038	  9.431475	
14.6371	  9.423452	
14.6704	  9.422617	
14.7036	  9.424722	
14.7369	  9.429146	
14.7702	  9.431616	
14.8034	  9.426323	
14.8367	  9.416691	
14.87	  9.406666	
14.9032	  9.397892	
14.9365	  9.396904	
14.9698	  9.404077	
15.003	  9.411828	
15.0363	  9.418405	
15.0696	  9.424798	
15.1028	  9.430388	
15.1361	  9.438451	
15.1694	  9.451140	
15.2026	  9.464695	
15.2359	  9.475550	
15.2692	  9.480122	
15.3024	  9.475287	
15.3357	  9.464910	
15.369	  9.452680	
15.4022	  9.435179	
15.4355	  9.411316	
